# xmcd
#
# Track frame offsets:
#	150
#	10309
#	22976
#	41811
#	56980
#	66785
#	81031
#	91801
#	105927
#	123375
#	137283
#	149109
#	161052
#
# Disc length: 2362 seconds
#
# Revision: 2
# Processed by: cddbd v1.5.2PL0 Copyright (c) Steve Scherf et al.
# Submitted via: EasyCDDAExtractor 11.9.9.666
#
DISCID=ab09380d
DTITLE=Blue Moon Rising - Raised On Pain
DYEAR=2001
DGENRE=Bluegrass
TTITLE0=Another Lonesome Day
TTITLE1=Raised On Pain
TTITLE2=The Way I Truly Feel
TTITLE3=Jeffrey's Hell
TTITLE4=Catch Me When I Fall
TTITLE5=How Could Hell Be Any Worse
TTITLE6=Mountain Boy
TTITLE7=Aunt Birdie's Wingback Chevrolet
TTITLE8=Lefty's Old Guitar
TTITLE9=Ten More Dollars
TTITLE10=Dark Hollow
TTITLE11=My Love Will Never Die
TTITLE12=Don't Put Off Until Tomorrow (What You Can Do Today)
EXTD=ID3G: 89
EXTT0=
EXTT1=
EXTT2=
EXTT3=
EXTT4=
EXTT5=
EXTT6=
EXTT7=
EXTT8=
EXTT9=
EXTT10=
EXTT11=
EXTT12=
PLAYORDER=
